<?xml version="1.0" encoding="UTF-8"?>
<svg width="82px" height="90px" viewBox="0 0 82 90" version="1.1" xmlns="http://www.w3.org/2000/svg" xmlns:xlink="http://www.w3.org/1999/xlink">
    <!-- Generator: Sketch 49.3 (51167) - http://www.bohemiancoding.com/sketch -->
    <title>Artboard</title>
    <desc>Created with Sketch.</desc>
    <defs></defs>
    <g id="Artboard" stroke="none" stroke-width="1" fill="none" fill-rule="evenodd">
        <g id="shopping-cart" fill="#000000">
            <path d="M43.6149425,12.6551724 C43.6149425,14.0358843 42.4956544,15.1551724 41.1149425,15.1551724 C39.7342307,15.1551724 38.6149425,14.0358843 38.6149425,12.6551724 L38.6149425,3.42445535 C38.6149425,2.04374347 39.7342307,0.924455347 41.1149425,0.924455347 C42.4956544,0.924455347 43.6149425,2.04374347 43.6149425,3.42445535 L43.6149425,12.6551724 Z" id="Line" fill-rule="nonzero"></path>
            <path d="M56.9114865,15.0701142 C56.085599,16.1765839 54.5191141,16.4040407 53.4126444,15.5781532 C52.3061747,14.7522657 52.0787179,13.1857807 52.9046054,12.0793111 L58.4218468,4.68767444 C59.2477343,3.58120478 60.8142193,3.35374798 61.9206889,4.17963548 C63.0271586,5.00552297 63.2546154,6.57200796 62.4287279,7.67847763 L56.9114865,15.0701142 Z" id="Line" fill-rule="nonzero"></path>
            <path d="M24.8469777,14.8951486 C24.1177211,16.0675607 22.576114,16.4268091 21.4037019,15.6975524 C20.2312899,14.9682958 19.8720415,13.4266887 20.6012981,12.2542767 L25.1989993,4.86264005 C25.9282559,3.690228 27.469863,3.33097958 28.6422751,4.06023624 C29.8146871,4.7894929 30.1739355,6.33109998 29.4446789,7.50351202 L24.8469777,14.8951486 Z" id="Line" fill-rule="nonzero" transform="translate(25.022989, 9.878894) scale(-1, 1) translate(-25.022989, -9.878894) "></path>
            <path d="M69.4980629,32 L12.501937,32 L3.99999858,61.28445 L3.99999858,84.016662 C3.99999858,85.1212315 4.89542908,86.016662 5.99999858,86.016662 L76,86.016662 C77.1045695,86.016662 78,85.1212315 78,84.016662 L78,61.28445 L69.4980629,32 Z M12.501937,28 L69.4980629,28 C71.2776767,28 72.8432734,29.1757139 73.3394478,30.8847592 L82,60.71555 L82,84.016662 C82,87.3303705 79.3137085,90.016662 76,90.016662 L5.99999858,90.016662 C2.68629008,90.016662 -1.41644681e-06,87.3303705 -1.41644682e-06,84.016662 L-1.41644682e-06,60.71555 L8.66055216,30.8847591 C9.15672667,29.1757138 10.7223233,28 12.501937,28 Z" id="Path-2" fill-rule="nonzero"></path>
            <path d="M2,63 L2,59 L24,59 C27.3137085,59 30,61.6862915 30,65 L30,66.0827625 C30,67.187332 30.8954305,68.0827625 32,68.0827625 L50.000107,68.0827625 C51.1046765,68.0827625 52.000107,67.187332 52.000107,66.0827625 L52.000107,64.9405887 C52.000107,61.6268802 54.6863985,58.9405887 58.000107,58.9405887 C58.0055094,58.9405912 65.3406078,58.9603973 80.0054024,59.0000073 L79.9945976,62.9999927 L58.0055094,62.940596 C56.8955375,62.9405887 56.000107,63.8360192 56.000107,64.9405887 L56.000107,66.0827625 C56.000107,69.396471 53.3138155,72.0827625 50.000107,72.0827625 L32,72.0827625 C28.6862915,72.0827625 26,69.396471 26,66.0827625 L26,65 C26,63.8954305 25.1045695,63 24,63 L2,63 Z" id="Path-3" fill-rule="nonzero"></path>
            <path d="M28,81 C26.8954305,81 26,80.1045695 26,79 C26,77.8954305 26.8954305,77 28,77 L54,77 C55.1045695,77 56,77.8954305 56,79 C56,80.1045695 55.1045695,81 54,81 L28,81 Z" id="Path-4" fill-rule="nonzero"></path>
            <path d="M25.3048349,38 L56.6951651,38 C58.0543172,38 59.2436671,38.9137518 59.5938699,40.227012 L62.3292466,50.4846747 C62.6138529,51.5519483 61.9793757,52.6478636 60.912102,52.9324699 C60.7439953,52.9772983 60.5707579,53 60.3967767,53 L21.6032233,53 C20.4986538,53 19.6032233,52.1045695 19.6032233,51 C19.6032233,50.8260188 19.625925,50.6527814 19.6707534,50.4846747 L22.4061301,40.227012 C22.7563329,38.9137518 23.9456828,38 25.3048349,38 Z" id="Rectangle-3" opacity="0.4"></path>
        </g>
    </g>
</svg>