<svg width="16" height="16">
  <path fill="#000" fill-rule="evenodd" d="M7.82061687.125c1.08464084 0 2.10009293.20198366 3.04638673.60595703.9462938.40397338 1.7708298.96012016 2.4736328 1.66845703.702803.70833688 1.2561829 1.5356398 1.6601563 2.4819336.4039733.94629379.605957 1.95621208.605957 3.02978515 0 1.08464084-.2019837 2.10009289-.605957 3.04638669-.4039734.9462938-.9573533 1.7708299-1.6601563 2.4736328-.702803.702803-1.527339 1.2589498-2.4736328 1.6684571-.9462938.4095072-1.96174589.6142578-3.04638673.6142578s-2.10009292-.2047506-3.04638672-.6142578c-.94629379-.4095073-1.77082982-.9656541-2.47363281-1.6684571-.70280299-.7028029-1.25618288-1.527339-1.66015625-2.4736328-.40397338-.9462938-.60595703-1.96174585-.60595703-3.04638669 0-1.07357307.20198365-2.08349136.60595703-3.02978515.40397337-.9462938.95735326-1.77359672 1.66015625-2.4819336.70280299-.70833687 1.52733902-1.26448365 2.47363281-1.66845703C5.72052395.32698366 6.73597603.125 7.82061687.125zm0 14.1611328c.88542109 0 1.71549093-.166014 2.49023433-.4980469.7747435-.3320329 1.449867-.7858044 2.0253907-1.3613281s1.0292952-1.2506472 1.3613281-2.0253906c.3320329-.7747435.4980469-1.60481329.4980469-2.49023439 0-.88542109-.166014-1.71549092-.4980469-2.49023437-.3320329-.77474346-.7858044-1.44986692-1.3613281-2.02539063-.5755237-.57552371-1.2506472-1.02929521-2.0253907-1.36132812-.7747434-.33203291-1.60481324-.49804688-2.49023433-.49804688-.88542109 0-1.71549092.16601397-2.49023437.49804688-.77474346.33203291-1.44986692.78580441-2.02539063 1.36132812-.57552371.57552371-1.02929521 1.25064717-1.36132812 2.02539063-.33203292.77474345-.49804688 1.60481328-.49804688 2.49023437 0 .8854211.16601396 1.71549089.49804688 2.49023439.33203291.7747434.78580441 1.4498669 1.36132812 2.0253906.57552371.5755237 1.25064717 1.0292952 2.02539063 1.3613281.77474345.3320329 1.60481328.4980469 2.49023437.4980469zm2.83886723-7.07226561c.2102875 0 .3790683.06363868.5063476.19091797.1272793.12727928.190918.29606014.190918.50634765 0 .22135528-.0636387.39566994-.190918.52294922-.1272793.12727928-.2960601.19091797-.5063476.19091797H4.98174968c-.21028751 0-.37906837-.06363869-.50634765-.19091797-.12727929-.12727928-.19091797-.30159394-.19091797-.52294922 0-.21028751.06363868-.37906837.19091797-.50634765.12727928-.12727929.29606014-.19091797.50634765-.19091797h5.67773442z"/>
</svg>
