<svg width="11" height="6">
  <path fill="#000" fill-rule="evenodd" d="M10.5686637.28808594c.143881.14388093.2158204.30989489.2158204.49804687s-.0719394.35416595-.2158204.49804688L6.31866375 5.5341797c-.07747435.0774743-.16324823.1328123-.25732422.1660156C5.96726354 5.7333986 5.88702345 5.75 5.82061687 5.75c-.06640658 0-.14664667-.0166014-.24072266-.0498047-.09407599-.0332033-.17984987-.0885413-.25732421-.1660156l-4.25-4.25000001C.92868907 1.14029876.85674968.97428479.85674968.78613281c0-.18815198.07193939-.35416594.21582032-.49804687.14388092-.13281317.30989489-.19921875.49804687-.19921875s.35416595.06640558.49804688.19921875L5.82061687 4.0566406 9.57257.28808594c.1438809-.13281317.3098949-.19921875.4980469-.19921875.188152 0 .3541659.06640558.4980468.19921875z"/>
</svg>
