<svg width="12" height="12">
  <path fill="#000" fill-rule="evenodd" d="M10.7844841 5.21386719c.2102875 0 .3790683.06363868.5063476.19091797.1272793.12727928.190918.29606014.190918.50634765 0 .22135528-.0636387.39566994-.190918.52294922-.1272793.12727928-.2960601.19091797-.5063476.19091797H6.53448406v4.25c0 .2102875-.06640559.3818353-.19921875.5146484-.13281317.1328132-.30436093.1992188-.51464844.1992188s-.38183527-.0664056-.51464844-.1992188c-.13281316-.1328131-.19921875-.3043609-.19921875-.5146484v-4.25h-4.25c-.21028751 0-.37906837-.06363869-.50634765-.19091797-.12727929-.12727928-.19091797-.30159394-.19091797-.52294922 0-.21028751.06363868-.37906837.19091797-.50634765.12727928-.12727929.29606014-.19091797.50634765-.19091797h4.25v-4.25c0-.22135528.06640559-.39566994.19921875-.52294922C5.4387816.31363869 5.61032936.25 5.82061687.25s.38183527.06363869.51464844.19091797c.13281316.12727928.19921875.30159394.19921875.52294922v4.25h4.25000004z"/>
</svg>
