<svg width="15" height="15">
  <path fill="#000" fill-rule="evenodd" d="M14.6936637 13.7880859c.143881.143881.2158204.3098949.2158204.4980469 0 .188152-.0719394.354166-.2158204.4980469-.0774743.0774743-.1632482.1328123-.2573242.1660156-.094076.0332033-.174316.0498047-.2407226.0498047-.0664066 0-.1466467-.0166014-.2407227-.0498047-.094076-.0332033-.1798499-.0885413-.2573242-.1660156l-3.1875-3.1875c-.5312527.3873717-1.1123015.6972645-1.74316407.9296875-.63086253.232423-1.30045218.3486328-2.00878906.3486328-.83008228 0-1.61034791-.1577133-2.34082031-.4731445-.7304724-.3154313-1.36962617-.7443007-1.91748047-1.2866211s-.97949061-1.1787073-1.29492188-1.9091797C.88946295 8.47558229.73174968 7.68978285.73174968 6.84863281c0-.83008227.15771327-1.61034791.47314453-2.34082031.31543127-.7304724.74706758-1.36685927 1.29492188-1.90917969s1.18700807-.97118983 1.91748047-1.28662109C5.14776896.99658045 5.92803459.83886719 6.75811687.83886719c.83008228 0 1.61034791.15771326 2.34082033.47314453.7304724.31543126 1.3696261.74430067 1.9174805 1.28662109.5478543.54232042.9794906 1.17870729 1.2949218 1.90917969.3154313.7304724.4731446 1.51073804.4731446 2.34082031 0 .70833688-.1162098 1.38899413-.3486329 2.04199219-.232423.6529981-.5423157 1.2229793-.9296875 1.7099609l3.1875 3.1875zM2.15948406 6.84863281c0 .6419303.11897667 1.24234747.35693359 1.80126953.23795692.55892206.56445105 1.04589636.97949219 1.46093746.41504114.4150412.90201543.7443022 1.4609375.987793.55892206.2434908 1.15933924.3652344 1.80126953.3652344.64193029 0 1.23958057-.1189767 1.79296875-.3569336.55338818-.2379569 1.04036248-.567218 1.46093748-.987793.4316428-.4316428.7636707-.9241509.9960938-1.47753904.232423-.55338818.3486328-1.15103845.3486328-1.79296875 0-.63086253-.1189767-1.2257459-.3569336-1.78466797-.2379569-.55892206-.5644511-1.04866326-.9794922-1.46923828-.4150411-.42057502-.9020154-.74983605-1.4609375-.98779297C8.00046434 2.36897667 7.40004716 2.25 6.75811687 2.25c-.64193029 0-1.24234747.11897667-1.80126953.35693359-.55892207.23795692-1.04589636.56721795-1.4609375.98779297-.41504114.42057502-.74153527.91031622-.97949219 1.46923828-.23795692.55892207-.35693359 1.15380544-.35693359 1.78466797z"/>
</svg>
