<svg width="18" height="15">
  <path fill="#000" fill-rule="evenodd" d="M15.174513 2.96386719c.5976592 0 1.1012349.20198365 1.5107422.60595703.4095072.40397337.6142578.91031597.6142578 1.51904297V12.875c0 .5976592-.2047506 1.1012349-.6142578 1.5107422C16.2757479 14.7952494 15.7721722 15 15.174513 15H2.42451297c-.59765924 0-1.10123493-.2047506-1.51074219-.6142578-.40950725-.4095073-.61425781-.913083-.61425781-1.5107422V5.08886719c0-.608727.20475056-1.1150696.61425781-1.51904297.40950726-.40397338.91308295-.60595703 1.51074219-.60595703h2.47363281l1.21191407-1.84277344c.06640658-.07747435.14941356-.14387993.24902343-.19921875.09960988-.05533882.20475205-.08300781.31542969-.08300781H10.924513c.1106776 0 .2158198.02766899.3154297.08300781.0996098.05533882.1826168.1217444.2490234.19921875l1.2119141 1.84277344h2.4736328zM15.8883802 12.875V5.08886719c0-.22135528-.0664056-.39566994-.1992188-.52294922C15.5563482 4.43863869 15.3848005 4.375 15.174513 4.375h-2.8388672c-.0996099 0-.2019852-.03043589-.3071289-.09130859-.1051438-.0608727-.2130529-.12451139-.3237305-.19091797L10.4928723 2.25H7.02314578l-1.1953125 1.84277344c-.07747434.06640658-.16601512.13004527-.265625.19091797-.09960987.0608727-.19921825.09130859-.29882812.09130859H2.42451297c-.21028751 0-.38183527.06363869-.51464844.19091797-.13281316.12727928-.19921875.30159394-.19921875.52294922V12.875c0 .2102875.06640559.3818353.19921875.5146484.13281317.1328132.30436093.1992188.51464844.1992188H15.174513c.2102875 0 .3818352-.0664056.5146484-.1992188.1328132-.1328131.1992188-.3043609.1992188-.5146484zM8.79951297 5.08886719c.49804937 0 .96288847.09130768 1.39453123.27392578.4316428.1826181.8051742.43163905 1.1206055.74707031.3154313.31543127.5644522.68896269.7470703 1.12060547.1826181.43164278.2739258.89648188.2739258 1.39453125 0 .4980494-.0913077.9628885-.2739258 1.3945312-.1826181.4316428-.431639.8051743-.7470703 1.1206055-.3154313.3154313-.6889627.5644522-1.1206055.7470703-.43164276.1826181-.89648186.2739258-1.39453123.2739258-.49804937 0-.96288847-.0913077-1.39453125-.2739258s-.8051742-.431639-1.12060547-.7470703c-.31543126-.3154312-.56445221-.6889627-.74707031-1.1206055-.1826181-.4316427-.27392578-.8964818-.27392578-1.3945312 0-.49804937.09130768-.96288847.27392578-1.39453125s.43163905-.8051742.74707031-1.12060547c.31543127-.31543126.68896269-.56445221 1.12060547-.74707031.43164278-.1826181.89648188-.27392578 1.39453125-.27392578zm0 5.66113281c.59765924 0 1.10123493-.2047506 1.51074223-.6142578.4095072-.4095073.6142578-.913083.6142578-1.5107422 0-.59765924-.2047506-1.10123493-.6142578-1.51074219C9.9007479 6.70475056 9.39717221 6.5 8.79951297 6.5c-.59765924 0-1.10123493.20475056-1.51074219.61425781-.40950725.40950726-.61425781.91308295-.61425781 1.51074219 0 .5976592.20475056 1.1012349.61425781 1.5107422.40950726.4095072.91308295.6142578 1.51074219.6142578z"/>
</svg>
