<svg width="16" height="18">
  <path fill="#000" fill-rule="evenodd" d="M14.4114372 3.68164062c.3873717.17708422.6834299.42887207.8881836.7553711.2047536.32649903.3071289.68896285.3071289 1.08740234v6.72363284c0 .420575-.110676.7996402-.3320313 1.137207-.2213552.3375668-.5091128.5948884-.8632812.7719727l-5.67773439 2.8388672c-.13281317.0664065-.27392504.1189776-.42333985.1577148-.14941481.0387372-.31266187.0581055-.48974609.0581055-.14388093 0-.29882729-.0193683-.46484375-.0581055-.16601646-.0387372-.31542902-.0913083-.44824219-.1577148l-5.67773437-2.8388672c-.38737173-.1770843-.68342997-.4427066-.8881836-.796875-.20475362-.3541685-.3071289-.724933-.3071289-1.1123047V5.52441406c0-.39843949.09960838-.76090331.29882812-1.08740234.19921975-.32649903.47590969-.57828688.83007813-.7553711L6.82452312.84277344c.32096515-.14388093.65022618-.21582031.98779297-.21582031s.64469263.07193938.92138672.2158203l5.67773439 2.83886719zM7.53839031 2.03808594l-1.69335938.86328125 5.51171877 2.75585937 1.9921875-.99609375-5.24609377-2.62304687c-.03320329-.03320329-.07193988-.05257159-.11621093-.05810547-.04427106-.00553388-.09960905-.00830078-.16601563-.00830078-.03320329 0-.08024058.0027669-.14111328.00830078-.0608727.00553388-.10790999.02490218-.14111328.05810547zm.28222656 5.39550781L9.7962028 6.4375 4.28448406 3.68164062l-1.9921875.97949219 5.52832031 2.77246094zM1.79424968 12.9619141l5.3125 2.6064453V8.62890625L1.44561687 5.80664062v6.50781248c0 .1106777.03320279.2268874.09960938.3486328.06640658.1217454.14941356.2213538.24902343.2988282zm11.96972652 0c.143881-.0774744.25179-.1687821.3237305-.2739258.0719405-.1051438.1079102-.2296542.1079102-.3735352V5.80664062L8.53448406 8.62890625v6.93945315l5.22949214-2.6064453z"/>
</svg>
