<svg width="12" height="15">
  <path fill="#000" fill-rule="evenodd" d="M9.3567497.83886719c.608727 0 1.1123027.20198365 1.5107422.60595703.3984395.40397337.5810548.91031597.5478515 1.51904297V14.2861328c0 .1438809-.0332028.2683914-.0996093.3735352-.0664066.1051437-.1494136.1964514-.2490235.2739258-.0774743.0332032-.1383461.0525715-.1826172.0581054-.044271.0055339-.1051428.0083008-.1826172.0083008-.0664065 0-.135579-.0138345-.2075195-.0415039-.0719405-.0276694-.1411129-.0636391-.2075195-.1079102l-4.53222658-3.2539062-4.53222656 3.2539062c-.11067764.0774744-.22965431.1272786-.3569336.1494141-.12727928.0221355-.24625595 3e-7-.35693359-.0664062-.11067764-.0774744-.19645152-.1687821-.25732422-.2739258-.0608727-.1051438-.09130859-.2296543-.09130859-.3735352V2.96386719c0-.608727.20198365-1.1150696.60595703-1.51904297.40397337-.40397338.91031597-.60595703 1.51904297-.60595703H9.3567497zm.7138672 12.10253911V2.96386719c0-.22135528-.0636387-.39566994-.190918-.52294922C9.7524196 2.31363869 9.578105 2.25 9.3567497 2.25H2.28448406c-.22135528 0-.39566994.06363869-.52294922.19091797s-.19091797.30159394-.19091797.52294922v9.97753911l3.81835938-2.7558594c.07747434-.0332033.15218062-.0664061.22412109-.0996094.07194046-.0332033.14111295-.0498047.20751953-.0498047.06640658 0 .13557907.0166014.20751953.0498047.07194047.0332033.14664675.0664061.2241211.0996094l3.8183594 2.7558594z"/>
</svg>
