<svg width="980" height="265">
  <g fill="none" fill-rule="nonzero">
    <path fill="#1AAD19" d="M108.9 167c-1.4.7-2.9 1.1-4.5 1.1-3.7 0-7-2.1-8.7-5.1l-.7-1.4-27.2-59.8c-.3-.7-.5-1.4-.5-2.1 0-2.8 2.2-5 5-5 1.1 0 2.2.4 3 1l32.2 22.9c2.4 1.5 5.2 2.4 8.2 2.4 1.8 0 3.5-.3 5.1-.9L272 52.8C244.9 20.9 200.3 0 149.7 0 67-.1 0 55.8 0 124.7c0 37.6 20.2 71.4 51.7 94.3 2.5 1.8 4.2 4.8 4.2 8.1 0 1.1-.2 2.1-.5 3.2-2.5 9.4-6.6 24.5-6.7 25.2-.3 1.2-.8 2.4-.8 3.6 0 2.8 2.2 5 5 5 1.1 0 2-.4 2.9-.9l32.8-18.9c2.5-1.4 5.1-2.3 7.9-2.3 1.5 0 3 .2 4.4.7 15.3 4.4 31.8 6.8 48.9 6.8 82.7 0 149.7-55.8 149.7-124.7 0-20.9-6.2-40.5-17-57.8L110 166.4l-1.1.6z"/>
    <path fill="#4D4D4D" d="M579.7 138.3h83.9v7.1h-83.9zM579.7 161.9h83.9v7.7h-83.9zM581.9 235.6h79.6v-45.2h-79.6v45.2zm71.9-7.1h-64.3v-31h64.3v31zM561.4 94.6c-7.5 26.4-18.1 49.6-31.9 69.7l4.2 7.3c4.9-7.2 9.8-15.4 14.7-24.4v89h7.7v-105c4.9-10.5 9-21.3 12.4-32.5l-7.1-4.1zM622.3 114.1l6-3.5c-1.2-2.7-6.2-13.1-7.8-16.6l-7.1 4.1c2.5 4.7 4.9 9.5 7.1 14.2.4.8.6 1.4.6 1.8h-49.6v7.7h101.1v-7.7h-50.3zM432.8 96.6h7.1v37.8h14.8v-26.6h7.1v33.7h-51.4v-33.7h7.1v26.6h15.4V96.6zM412.7 156.9h45.5v7.1h-45.5zM464.6 198.1l-11.8 10.1v-28.8h-38.4v11.2c1.1 15.9-2.8 27.1-11.8 33.6l4.1 7.1c11-9.1 16.1-21.7 15.3-37.8v-7.1h23.6v17.1c-.3 5.8-.6 7.7-2.6 10.6l4.4 7.7c3.9-3.2 10.8-9 20.6-17.7l-3.4-6zM399.5 95.2c-7.3 15-16.2 27.3-26.5 37l4.3 7.5c11.8-11.8 21.4-25.4 28.9-40.7l-6.7-3.8zM398.5 133.9c-7.1 17.6-16.3 32.9-27.6 45.9l4.1 7.1c4.7-5.5 9.1-11.1 13.4-16.9v66.2h7.1v-78c3.5-6.2 6.8-12.9 9.9-20.3l-6.9-4z"/>
    <path fill="#4D4D4D" d="M517.2 129.7v-7.1h-33.7c2.9-8.6 6.3-18.9 7.4-27.8h-7.4c-4.9 23.2-12.3 42.7-22 58.6l4.5 7.8c.8-1.6 1.9-3.7 3.3-6.6 1.6-2.8 2.8-4.9 3.5-6.5 2.4 20.9 6.5 37.4 12.4 49.6-5.6 9.8-14.2 19.7-25.5 29.8l4.3 7.4c12.2-11.4 20.5-21.3 24.8-29.5 5.1 9.3 13.8 20.2 23.5 30l4.3-7.5c-10.1-9.6-18.8-20.3-23.6-29.6 8.7-15.8 14-38.6 16-68.6h8.2zm-27.7 59.7c-5.1-13-8.9-30.5-11.2-52.6.8-2.4 1.8-4.7 3-7.1H502c-1.7 25.3-5.8 45.1-12.5 59.7zM921.6 199.3c-5.2-10.2-15.8-27.9-24.4-40.8l6.4-3.2c8.8 12.9 19.6 30.1 24.7 39.7l-6.7 4.3zM826.1 234.8l2-6.7c-24.1-3.6-44.9-10.5-62.4-20.7 18.8-12.4 34-28.8 43.3-50.7l-5-3.3-1.6.3h-40.5v-28.1h61.5V118h-61.5V91.7h-7.5V118h-61.3v7.6h61.3v28.1h-41.7v7.5c8.9 18.8 22.6 34.3 39.1 45.9-18.5 10.4-40.2 17.2-62.6 21.3l2.2 7.1c0 .1.1.3.2.4 23.9-4.8 47.3-12.4 67.1-24.1 18.6 11.6 41.1 19.4 67.1 23.4 0 0 .2-.2.3-.4m-104.5-73.6h76.3c-8.8 17.7-22.4 31.2-39.1 41.9-16.1-11-28.8-24.8-37.2-41.9M881.1 92.8c-9.3 25.1-24.1 49.2-40.2 65.4l3.2 8.1c.1.1.2.3.2.4 6.7-6.7 13-14.7 18.9-23.4v92.4h7.5V131.6c6.7-11.5 12.7-23.7 17.5-36.5l-7.1-2.3z"/>
    <path fill="#4D4D4D" d="M958.9 127.7V93.6h-7.5v34.1h-65.6v7.7h65.6V224c0 3.7-1.3 4.6-4.9 4.9-2.9.1-5.9.8-14.1.9v6.7c11.1.1 14.8-.1 19.1-1.3 5-1.3 7.4-3.8 7.4-11.3v-88.4H980v-7.7l-21.1-.1z"/>
  </g>
</svg>
