<?xml version="1.0" encoding="UTF-8"?>
<svg width="14px" height="10px" viewBox="0 0 14 10" version="1.1" xmlns="http://www.w3.org/2000/svg" xmlns:xlink="http://www.w3.org/1999/xlink">
    <!-- Generator: Sketch 50 (54983) - http://www.bohemiancoding.com/sketch -->
    <title>置换</title>
    <desc>Created with Sketch.</desc>
    <defs></defs>
    <g id="Page-1" stroke="none" stroke-width="1" fill="none" fill-rule="evenodd">
        <g id="置换" transform="translate(0.000000, -1.000000)" fill="#000000">
            <path d="M13.1081067,6.19335938 C13.1081067,6.23763043 13.0915053,6.27636702 13.058302,6.30957031 L8.7086927,10.6591797 C8.6422861,10.736654 8.562046,10.791992 8.46797,10.8251953 C8.373894,10.8583986 8.2881201,10.875 8.2106458,10.875 C8.1442392,10.875 8.0639991,10.8583986 7.96992314,10.8251953 C7.87584715,10.791992 7.79007326,10.736654 7.71259892,10.6591797 C7.57978575,10.5152988 7.51338017,10.3492848 7.51338017,10.1611328 C7.51338017,9.9729808 7.57978575,9.8069669 7.71259892,9.6630859 L10.7672864,6.625 L1.13838017,6.625 C0.91702489,6.625 0.74271023,6.56136131 0.61543095,6.43408203 C0.48815167,6.30680275 0.42451298,6.13248809 0.42451298,5.91113281 C0.42451298,5.7008453 0.48815167,5.53206444 0.61543095,5.40478516 C0.74271023,5.27750587 0.91702489,5.21386719 1.13838017,5.21386719 L10.7672864,5.21386719 L7.71259892,2.15917969 C7.57978575,2.01529876 7.51338017,1.84928479 7.51338017,1.66113281 C7.51338017,1.47298083 7.57978575,1.30696687 7.71259892,1.16308594 C7.85647985,1.03027277 8.0224938,0.96386719 8.2106458,0.96386719 C8.3987978,0.96386719 8.5648117,1.03027277 8.7086927,1.16308594 L12.9586927,5.41308594 C12.991896,5.45735699 13.0167981,5.49609358 13.0333997,5.52929688 C13.0500013,5.56250017 13.0749034,5.59570296 13.1081067,5.62890625 C13.14131,5.73958389 13.1579114,5.84472606 13.1579114,5.94433594 C13.1579114,6.04394581 13.14131,6.12695279 13.1081067,6.19335938 Z" id="Shape"></path>
        </g>
    </g>
</svg>