<svg width="14" height="10">
  <path fill="#000" fill-rule="evenodd" d="M13.1081067 5.19335938c0 .04427105-.0166014.08300764-.0498047.11621093L8.7086927 9.6591797c-.0664066.0774743-.1466467.1328123-.2407227.1660156-.094076.0332033-.1798499.0498047-.2573242.0498047-.0664066 0-.1466467-.0166014-.24072266-.0498047-.09407599-.0332033-.17984988-.0885413-.25732422-.1660156-.13281317-.1438809-.19921875-.3098949-.19921875-.4980469 0-.188152.06640558-.3541659.19921875-.4980469L10.7672864 5.625H1.13838017c-.22135528 0-.39566994-.06363869-.52294922-.19091797s-.19091797-.30159394-.19091797-.52294922c0-.21028751.06363869-.37906837.19091797-.50634765.12727928-.12727929.30159394-.19091797.52294922-.19091797h9.62890623l-3.05468748-3.0546875c-.13281317-.14388093-.19921875-.3098949-.19921875-.49804688 0-.18815198.06640558-.35416594.19921875-.49804687.14388093-.13281317.30989488-.19921875.49804688-.19921875.188152 0 .3541659.06640558.4980469.19921875l4.25 4.25c.0332033.04427105.0581054.08300764.074707.11621094.0166016.03320329.0415037.06640608.074707.09960937.0332033.11067764.0498047.21581981.0498047.31542969 0 .09960987-.0166014.18261685-.0498047.24902344z"/>
</svg>
