<svg width="15" height="16">
  <path fill="#000" fill-rule="evenodd" d="M6.40948406 14.2861328c.21028751 0 .37906837.0664056.50634765.1992188.12727929.1328131.19091797.3043609.19091797.5146484 0 .2102875-.06363868.3818353-.19091797.5146484-.12727928.1328132-.29606014.1992188-.50634765.1992188H2.85674968c-.59765924 0-1.10123493-.2047506-1.51074218-.6142578-.40950726-.4095073-.61425782-.913083-.61425782-1.5107422V2.25c0-.59765924.20475056-1.10123493.61425782-1.51074219C1.75551475.32975056 2.25909044.125 2.85674968.125h3.55273438c.21028751 0 .37906837.06363869.50634765.19091797.12727929.12727928.19091797.30159394.19091797.52294922 0 .21028751-.06363868.37906837-.19091797.50634765-.12727928.12727929-.29606014.19091797-.50634765.19091797H2.85674968c-.21028751 0-.37906837.06640559-.50634765.19921875-.12727929.13281317-.19091797.30436093-.19091797.51464844v11.3388672c0 .2102875.06363868.3790684.19091797.5063476.12727928.1272793.29606014.190918.50634765.190918h3.55273438zm8.41699214-6.09277342c0 .04427105-.0138345.08300764-.0415039.11621093-.0276694.03320329-.0581053.06640609-.0913086.09960938l-2.8388671 2.83886721c-.0664066.0664066-.1466467.1189776-.2407227.1577148-.094076.0387372-.1798499.0581055-.2573242.0581055-.0664066 0-.1466467-.0193683-.2407227-.0581055-.094076-.0387372-.1798498-.0913082-.2573242-.1577148-.1328132-.143881-.1992187-.3098949-.1992187-.4980469 0-.188152.0664055-.3541659.1992187-.4980469L12.5022575 8.625H5.69561687c-.21028751 0-.38183527-.06363869-.51464844-.19091797-.13281316-.12727928-.19921875-.30159394-.19921875-.52294922 0-.21028751.06640559-.37906837.19921875-.50634765.13281317-.12727929.30436093-.19091797.51464844-.19091797h6.80664063l-1.6435547-1.62695313c-.1328132-.14388093-.1992187-.30989489-.1992187-.49804687s.0664055-.35416595.1992187-.49804688c.1438809-.14388093.3098949-.21582031.4980469-.21582031.188152 0 .3541659.07193938.4980469.21582031l2.8388671 2.82226563c.0332033.04427105.0553385.08300764.0664063.11621094.0110678.03320329.033203.06640608.0664062.09960937.0442711.11067764.0664063.21581981.0664063.31542969 0 .09960987-.0221352.18261685-.0664063.24902344z"/>
</svg>
