<?xml version="1.0" encoding="UTF-8"?>
<svg width="26px" height="20px" viewBox="0 0 26 20" version="1.1" xmlns="http://www.w3.org/2000/svg" xmlns:xlink="http://www.w3.org/1999/xlink">
    <!-- Generator: Sketch 48 (47235) - http://www.bohemiancoding.com/sketch -->
    <title>Category</title>
    <desc>Created with Sketch.</desc>
    <defs></defs>
    <g id="Symbols" stroke="none" stroke-width="1" fill="none" fill-rule="evenodd">
        <g id="Category" fill="#1A1A1A">
            <g id="Combined-Shape">
                <path d="M22.210418,14.7962044 L25.8284271,18.4142136 L24.4142136,19.8284271 L20.5569669,15.9711805 C19.3513092,16.6272572 17.969184,17 16.5,17 C11.8055796,17 8,13.1944204 8,8.5 C8,3.80557963 11.8055796,0 16.5,0 C21.1944204,0 25,3.80557963 25,8.5 C25,10.9962376 23.9239593,13.2411525 22.210418,14.7962044 Z M16.5,15 C20.0898509,15 23,12.0898509 23,8.5 C23,4.91014913 20.0898509,2 16.5,2 C12.9101491,2 10,4.91014913 10,8.5 C10,12.0898509 12.9101491,15 16.5,15 Z"></path>
                <path d="M8.05557397,1 C7.50675107,1.61319334 7.02005684,2.28315836 6.60538634,3 L0,3 L0,1 L8.05557397,1 Z M5,9 C5,9.68142442 5.05679759,10.3495831 5.16591688,11 L0,11 L0,9 L5,9 Z M8.05557397,17 C8.73597965,17.7602092 9.51187656,18.4331609 10.3644098,19 L0,19 L0,17 L8.05557397,17 Z"></path>
            </g>
        </g>
    </g>
</svg>