<?xml version="1.0" encoding="UTF-8"?>
<svg width="20px" height="20px" viewBox="0 0 20 20" version="1.1" xmlns="http://www.w3.org/2000/svg" xmlns:xlink="http://www.w3.org/1999/xlink">
    <!-- Generator: Sketch 48 (47235) - http://www.bohemiancoding.com/sketch -->
    <title>Profile</title>
    <desc>Created with Sketch.</desc>
    <defs></defs>
    <g id="Symbols" stroke="none" stroke-width="1" fill="none" fill-rule="evenodd">
        <g id="Profile" fill="#1A1A1A">
            <g id="Combined-Shape">
                <path d="M10,12 C6.6862915,12 4,9.3137085 4,6 C4,2.6862915 6.6862915,0 10,0 C13.3137085,0 16,2.6862915 16,6 C16,9.3137085 13.3137085,12 10,12 Z M10,10 C12.209139,10 14,8.209139 14,6 C14,3.790861 12.209139,2 10,2 C7.790861,2 6,3.790861 6,6 C6,8.209139 7.790861,10 10,10 Z"></path>
                <path d="M20,20 L0,20 C1.81818182,15.3333333 5.15151515,13 10,13 C14.8484848,13 18.1818182,15.3333333 20,20 Z M16.5,18 C15.5,16 13.3333333,15 10,15 C6.66666667,15 4.5,16 3.5,18 L16.5,18 Z"></path>
            </g>
        </g>
    </g>
</svg>